<?xml version="1.0" encoding="UTF-8"?>
<svg xmlns="http://www.w3.org/2000/svg" xmlns:xlink="http://www.w3.org/1999/xlink" viewBox="0 0 64 64" version="1.1" width="24px" height="24px">
<g id="surface1">
<path style=" fill:#C5E4FA;" d="M 59 33 C 59 48.464844 46.464844 61 31 61 C 15.535156 61 3 48.464844 3 33 C 3 17.535156 15.535156 5 31 5 C 46.464844 5 59 17.535156 59 33 Z "/>
<path style=" fill:#E3F2FF;" d="M 12.710938 54.289063 C 15.359375 56.8125 18.480469 58.789063 21.890625 60.109375 L 56 26 L 56 19.570313 C 54.945313 17.820313 53.699219 16.191406 52.289063 14.710938 Z "/>
<path style=" fill:#E3F2FF;" d="M 10.761719 52.238281 L 50 13 L 44 13 L 8.21875 48.78125 C 8.976563 49.996094 9.828125 51.152344 10.761719 52.238281 Z "/>
<path style=" fill:#E3F2FF;" d="M 7.789063 45.210938 L 41 12 L 38 10 L 6.359375 41.640625 C 6.753906 42.863281 7.230469 44.054688 7.789063 45.210938 Z "/>
<path style=" fill:#F9E3AE;" d="M 31 5 C 15.535156 5 3 17.535156 3 33 C 3 48.464844 15.535156 61 31 61 C 46.464844 61 59 48.464844 59 33 C 59 17.535156 46.464844 5 31 5 Z M 31 55 C 21.109375 55 12.433594 48.402344 9.792969 38.867188 C 7.15625 29.335938 11.203125 19.214844 19.6875 14.128906 C 28.171875 9.042969 39.007813 10.246094 46.171875 17.070313 L 46.851563 17.738281 C 47.109375 18.007813 47.359375 18.28125 47.601563 18.558594 C 53.257813 25.0625 54.597656 34.273438 51.023438 42.121094 C 47.449219 49.964844 39.621094 55 31 55 Z "/>
<path style=" fill:#F6D397;" d="M 31 55 C 18.851563 55 9 45.148438 9 33 L 7.339844 33 C 6.152344 32.996094 5.023438 33.519531 4.261719 34.429688 C 3.5 35.339844 3.179688 36.542969 3.390625 37.710938 C 5.675781 51.171875 17.339844 61.023438 30.996094 61.023438 C 44.652344 61.023438 56.3125 51.171875 58.601563 37.710938 C 58.808594 36.542969 58.492188 35.34375 57.730469 34.433594 C 56.972656 33.523438 55.847656 33 54.660156 33 L 53 33 C 53 45.148438 43.148438 55 31 55 Z "/>
<path style=" fill:#72CAAF;" d="M 58 9 L 31 36 L 20 25 L 16 29 L 31 44 L 62 13 Z "/>
<path style=" fill:#97E0BB;" d="M 31 39.078125 C 30.335938 39.082031 29.699219 38.820313 29.230469 38.351563 L 17.941406 27.058594 L 20.058594 24.941406 L 31 35.878906 L 57.941406 8.941406 L 60.058594 11.058594 L 32.769531 38.351563 C 32.300781 38.820313 31.664063 39.082031 31 39.078125 Z "/>
<path style=" fill:#8D6C9F;" d="M 38.351563 13.320313 C 39.066406 13.589844 39.765625 13.894531 40.449219 14.238281 C 40.945313 14.488281 41.546875 14.289063 41.796875 13.796875 C 42.042969 13.300781 41.84375 12.699219 41.351563 12.449219 C 40.601563 12.074219 39.835938 11.742188 39.050781 11.449219 C 38.710938 11.300781 38.316406 11.351563 38.027344 11.582031 C 37.734375 11.8125 37.59375 12.183594 37.664063 12.546875 C 37.730469 12.914063 37.996094 13.210938 38.351563 13.320313 Z "/>
<path style=" fill:#8D6C9F;" d="M 62.710938 12.289063 L 58.710938 8.289063 C 58.320313 7.902344 57.691406 7.902344 57.300781 8.289063 L 52.230469 13.359375 C 52.179688 13.226563 52.101563 13.101563 52 13 C 46.542969 7.226563 38.941406 3.96875 31 4 C 17.996094 3.992188 6.578125 12.644531 3.066406 25.160156 C -0.449219 37.679688 4.796875 51.007813 15.90625 57.769531 C 27.011719 64.53125 41.261719 63.074219 50.769531 54.203125 C 60.277344 45.332031 62.71875 31.21875 56.738281 19.671875 L 62.738281 13.671875 C 63.101563 13.277344 63.085938 12.667969 62.710938 12.289063 Z M 58 33 C 58 47.910156 45.910156 60 31 60 C 16.089844 60 4 47.910156 4 33 C 4 18.089844 16.089844 6 31 6 C 38.402344 5.96875 45.488281 9.007813 50.570313 14.390625 C 50.679688 14.5 50.8125 14.582031 50.960938 14.628906 L 47.960938 17.628906 C 47.914063 17.507813 47.847656 17.394531 47.761719 17.300781 L 47.238281 16.769531 C 46.582031 16.109375 45.882813 15.488281 45.148438 14.910156 C 44.871094 14.65625 44.476563 14.582031 44.125 14.710938 C 43.773438 14.84375 43.527344 15.160156 43.484375 15.535156 C 43.441406 15.90625 43.609375 16.269531 43.921875 16.480469 C 44.589844 17.007813 45.226563 17.574219 45.828125 18.179688 L 46.300781 18.671875 C 46.40625 18.78125 46.535156 18.867188 46.679688 18.921875 L 31 34.589844 L 20.710938 24.289063 C 20.320313 23.902344 19.691406 23.902344 19.300781 24.289063 L 15.300781 28.289063 C 14.914063 28.679688 14.914063 29.308594 15.300781 29.699219 L 30.300781 44.699219 C 30.691406 45.085938 31.320313 45.085938 31.710938 44.699219 L 50.710938 25.699219 L 50.898438 26.238281 C 51 26.539063 51.09375 26.839844 51.179688 27.140625 C 51.179688 27.269531 51.261719 27.398438 51.289063 27.53125 C 51.410156 27.984375 51.511719 28.441406 51.601563 28.898438 L 51.601563 29.128906 C 52.414063 33.617188 51.761719 38.242188 49.738281 42.328125 C 49.640625 42.539063 49.53125 42.738281 49.429688 42.949219 C 49.328125 43.160156 49.089844 43.570313 48.910156 43.871094 C 48.730469 44.171875 48.570313 44.410156 48.390625 44.679688 C 48.210938 44.949219 48.089844 45.148438 47.921875 45.378906 C 47.574219 45.851563 47.210938 46.308594 46.828125 46.75 L 46.398438 47.210938 C 42.492188 51.46875 36.996094 53.921875 31.214844 53.984375 C 25.4375 54.050781 19.886719 51.726563 15.878906 47.558594 C 15.628906 47.300781 15.390625 47.03125 15.160156 46.761719 C 14.929688 46.488281 14.679688 46.210938 14.460938 45.929688 C 14.238281 45.648438 14.128906 45.488281 13.96875 45.261719 C 13.808594 45.03125 13.460938 44.558594 13.230469 44.191406 C 13.128906 44.019531 13.03125 43.851563 12.929688 43.691406 C 12.679688 43.261719 12.429688 42.828125 12.210938 42.390625 C 12.140625 42.25 12.078125 42.109375 12.019531 41.980469 C 11.800781 41.511719 11.578125 41.03125 11.398438 40.550781 C 11.339844 40.390625 11.289063 40.21875 11.230469 40.058594 C 11.070313 39.601563 10.910156 39.140625 10.78125 38.679688 C 10.710938 38.429688 10.660156 38.171875 10.589844 37.921875 C 10.519531 37.671875 10.410156 37.171875 10.328125 36.78125 C 10.25 36.390625 10.210938 36.019531 10.171875 35.640625 C 10.128906 35.261719 10.089844 35.109375 10.070313 34.839844 C 10.070313 34.359375 10.011719 33.839844 10 33.398438 C 10 33.21875 10 33.039063 10 32.871094 C 10 32.351563 10 31.871094 10.070313 31.320313 C 10.070313 31.171875 10.070313 31.011719 10.070313 30.859375 C 10.070313 30.371094 10.199219 29.859375 10.28125 29.390625 C 10.28125 29.199219 10.339844 29 10.378906 28.808594 C 10.46875 28.390625 10.578125 27.96875 10.691406 27.550781 C 10.761719 27.28125 10.828125 27.019531 10.910156 26.75 C 10.988281 26.480469 11.140625 26.058594 11.269531 25.75 C 11.398438 25.441406 11.519531 25.078125 11.660156 24.75 C 11.800781 24.421875 11.96875 24.058594 12.140625 23.75 C 12.308594 23.441406 12.359375 23.300781 12.480469 23.078125 C 12.699219 22.660156 12.949219 22.261719 13.199219 21.851563 C 13.289063 21.710938 13.371094 21.558594 13.460938 21.429688 C 13.8125 20.898438 14.191406 20.375 14.601563 19.871094 L 14.910156 19.511719 C 15.230469 19.128906 15.570313 18.75 15.910156 18.390625 C 16.25 18.03125 16.371094 17.929688 16.609375 17.710938 L 16.921875 17.421875 C 17.28125 17.09375 17.652344 16.78125 18.039063 16.480469 L 18.441406 16.191406 L 19.238281 15.621094 L 19.789063 15.261719 L 20.488281 14.851563 C 20.902344 14.617188 21.320313 14.398438 21.738281 14.191406 L 22.199219 13.960938 L 23.101563 13.578125 L 23.480469 13.429688 C 23.808594 13.308594 24.140625 13.191406 24.480469 13.078125 C 25.246094 12.832031 26.027344 12.628906 26.820313 12.46875 C 27.191406 12.398438 27.558594 12.328125 27.941406 12.28125 L 28.179688 12.28125 C 29.269531 12.101563 30.375 12.007813 31.480469 12 L 32.121094 12 L 32.910156 12.050781 L 33.988281 12.179688 L 34.351563 12.179688 C 34.613281 12.222656 34.882813 12.160156 35.097656 12.003906 C 35.3125 11.847656 35.457031 11.613281 35.5 11.351563 C 35.542969 11.085938 35.480469 10.816406 35.324219 10.601563 C 35.167969 10.386719 34.933594 10.242188 34.671875 10.199219 L 34.300781 10.199219 C 33.898438 10.140625 33.5 10.089844 33.089844 10.058594 L 32.25 10 L 31.480469 10 C 30.359375 9.976563 29.242188 10.039063 28.128906 10.179688 L 27.691406 10.238281 L 26.601563 10.421875 L 26.269531 10.488281 C 25.601563 10.628906 24.9375 10.804688 24.269531 11.011719 L 23.839844 11.140625 L 22.941406 11.460938 L 22.28125 11.71875 L 21.511719 12.050781 C 21.058594 12.25 20.621094 12.46875 20.191406 12.699219 L 19.761719 12.941406 C 19.40625 13.132813 19.074219 13.339844 18.761719 13.558594 L 18.308594 13.851563 C 17.9375 14.097656 17.570313 14.355469 17.210938 14.628906 L 16.960938 14.808594 C 16.511719 15.15625 16.078125 15.519531 15.648438 15.898438 L 15.449219 16.089844 C 15.230469 16.300781 15 16.5 14.78125 16.71875 L 14.558594 16.96875 C 14.210938 17.328125 13.871094 17.71875 13.558594 18.109375 C 13.421875 18.269531 13.28125 18.421875 13.148438 18.578125 C 12.71875 19.121094 12.300781 19.679688 11.921875 20.261719 C 11.808594 20.429688 11.710938 20.609375 11.601563 20.789063 C 11.339844 21.210938 11.078125 21.640625 10.839844 22.078125 C 10.710938 22.328125 10.589844 22.578125 10.460938 22.828125 C 10.328125 23.078125 10.199219 23.320313 10.078125 23.578125 C 9.960938 23.839844 9.910156 23.988281 9.828125 24.191406 L 9.730469 24.429688 C 9.46875 25.097656 9.238281 25.761719 9.039063 26.429688 L 9.039063 26.488281 C 8.203125 29.316406 7.921875 32.277344 8.210938 35.210938 C 8.277344 35.875 8.375 36.558594 8.511719 37.261719 L 8.570313 37.539063 C 8.691406 38.132813 8.832031 38.722656 9 39.308594 L 9.148438 39.820313 C 9.308594 40.328125 9.488281 40.820313 9.679688 41.339844 C 9.761719 41.550781 9.851563 41.769531 9.941406 41.980469 C 10.140625 42.445313 10.351563 42.90625 10.578125 43.359375 L 10.910156 43.988281 C 11.164063 44.457031 11.433594 44.914063 11.71875 45.359375 L 12.050781 45.871094 C 12.382813 46.371094 12.738281 46.851563 13.121094 47.320313 L 13.371094 47.628906 C 13.808594 48.164063 14.273438 48.675781 14.761719 49.171875 L 14.839844 49.25 C 19.125 53.542969 24.933594 55.96875 31 56 C 37.105469 55.996094 42.960938 53.574219 47.289063 49.269531 L 47.519531 49.03125 C 47.839844 48.699219 48.148438 48.371094 48.460938 48.03125 L 48.660156 47.789063 C 48.96875 47.421875 49.269531 47.039063 49.558594 46.648438 L 49.648438 46.511719 C 53.367188 41.417969 54.8125 35.015625 53.648438 28.820313 L 53.648438 28.558594 C 53.550781 28.058594 53.441406 27.558594 53.308594 27.058594 C 53.308594 26.921875 53.230469 26.78125 53.191406 26.640625 C 53.089844 26.308594 52.988281 25.96875 52.878906 25.640625 C 52.769531 25.308594 52.730469 25.210938 52.648438 25 C 52.570313 24.789063 52.441406 24.46875 52.328125 24.199219 L 55.328125 21.199219 C 57.097656 24.882813 58.011719 28.914063 58 33 Z M 31 42.589844 L 17.410156 29 L 20 26.410156 L 30.289063 36.710938 C 30.679688 37.097656 31.308594 37.097656 31.699219 36.710938 L 58 10.410156 L 60.589844 13 Z "/>
</g>
</svg>
